<?xml version="1.0" standalone="no"?>
<!DOCTYPE svg PUBLIC "-//W3C//DTD SVG 20010904//EN"
 "http://www.w3.org/TR/2001/REC-SVG-20010904/DTD/svg10.dtd">
<svg version="1.0" xmlns="http://www.w3.org/2000/svg"
 width="64.000000pt" height="64.000000pt" viewBox="0 0 64.000000 64.000000"
 preserveAspectRatio="xMidYMid meet">

<g transform="translate(0.000000,64.000000) scale(0.100000,-0.100000)"
fill="#000000" stroke="none">
<path d="M264 590 c-17 -27 -22 -29 -88 -32 l-71 -3 -3 -50 c-2 -37 1 -52 13
-61 13 -10 21 -51 35 -183 10 -95 23 -178 30 -186 18 -22 302 -22 320 0 7 8
20 91 30 186 14 132 22 173 35 183 12 9 15 24 13 61 l-3 50 -71 3 c-66 3 -71
5 -88 32 -16 28 -21 30 -76 30 -55 0 -60 -2 -76 -30z m136 -10 c10 -19 8 -20
-60 -20 -68 0 -70 1 -60 20 8 16 21 20 60 20 39 0 52 -4 60 -20z m160 -80 l0
-40 -220 0 -220 0 0 40 0 40 220 0 220 0 0 -40z m-33 -92 c-4 -18 -11 -89 -18
-158 -18 -185 -2 -170 -169 -170 -167 0 -151 -15 -169 170 -7 69 -14 140 -18
158 l-5 32 192 0 192 0 -5 -32z"/>
<path d="M150 500 c0 -11 5 -20 10 -20 6 0 10 9 10 20 0 11 -4 20 -10 20 -5 0
-10 -9 -10 -20z"/>
<path d="M200 500 c0 -11 5 -20 10 -20 6 0 10 9 10 20 0 11 -4 20 -10 20 -5 0
-10 -9 -10 -20z"/>
<path d="M250 500 c0 -11 5 -20 10 -20 6 0 10 9 10 20 0 11 -4 20 -10 20 -5 0
-10 -9 -10 -20z"/>
<path d="M300 500 c0 -11 5 -20 10 -20 6 0 10 9 10 20 0 11 -4 20 -10 20 -5 0
-10 -9 -10 -20z"/>
<path d="M360 500 c0 -11 5 -20 10 -20 6 0 10 9 10 20 0 11 -4 20 -10 20 -5 0
-10 -9 -10 -20z"/>
<path d="M410 500 c0 -11 5 -20 10 -20 6 0 10 9 10 20 0 11 -4 20 -10 20 -5 0
-10 -9 -10 -20z"/>
<path d="M460 500 c0 -11 5 -20 10 -20 6 0 10 9 10 20 0 11 -4 20 -10 20 -5 0
-10 -9 -10 -20z"/>
<path d="M510 500 c0 -11 5 -20 10 -20 6 0 10 9 10 20 0 11 -4 20 -10 20 -5 0
-10 -9 -10 -20z"/>
<path d="M246 283 c7 -109 9 -121 20 -110 10 9 -7 217 -18 217 -6 0 -7 -42 -2
-107z"/>
<path d="M330 280 c0 -67 4 -110 10 -110 6 0 10 43 10 110 0 67 -4 110 -10
110 -6 0 -10 -43 -10 -110z"/>
<path d="M416 284 c-6 -96 -4 -126 8 -113 9 10 18 219 9 219 -6 0 -13 -48 -17
-106z"/>
<path d="M220 110 c0 -6 33 -10 80 -10 47 0 80 4 80 10 0 6 -33 10 -80 10 -47
0 -80 -4 -80 -10z"/>
<path d="M400 110 c0 -5 14 -10 30 -10 17 0 30 5 30 10 0 6 -13 10 -30 10 -16
0 -30 -4 -30 -10z"/>
</g>
</svg>
