<?xml version="1.0" standalone="no"?>
<!DOCTYPE svg PUBLIC "-//W3C//DTD SVG 20010904//EN"
 "http://www.w3.org/TR/2001/REC-SVG-20010904/DTD/svg10.dtd">
<svg version="1.0" xmlns="http://www.w3.org/2000/svg"
 width="512.000000pt" height="512.000000pt" viewBox="0 0 512.000000 512.000000"
 preserveAspectRatio="xMidYMid meet">

<g transform="translate(0.000000,512.000000) scale(0.100000,-0.100000)"
fill="#000000" stroke="none">
<path d="M2940 5111 c-68 -22 -121 -69 -462 -409 l-366 -365 -104 66 c-451
286 -804 420 -1069 404 -146 -8 -228 -46 -229 -105 -1 -23 70 -97 437 -459
l438 -432 -767 -768 c-531 -532 -773 -782 -789 -813 -33 -63 -33 -174 -1 -245
19 -41 187 -214 965 -992 778 -778 951 -946 992 -965 71 -32 182 -32 245 1 31
16 271 249 780 757 l735 734 316 -308 c276 -270 323 -311 378 -336 71 -32 168
-38 237 -16 148 48 242 187 232 344 -8 124 -17 136 -368 483 l-315 312 422
423 c282 283 429 438 444 468 33 63 33 174 1 245 -19 41 -187 214 -965 992
-785 785 -950 946 -991 964 -53 23 -155 34 -196 20z m138 -136 c44 -19 1836
-1802 1883 -1874 33 -50 38 -102 15 -154 -8 -18 -196 -214 -430 -447 l-416
-415 -192 190 c-359 354 -424 415 -446 415 -12 0 -37 -13 -55 -30 l-34 -30
-97 93 -96 92 138 145 c77 80 143 156 147 170 7 22 -8 39 -146 173 -310 301
-671 612 -973 840 l-159 119 349 350 c192 193 363 356 379 364 40 18 87 17
133 -1z m-1848 -333 c495 -143 1226 -655 2003 -1403 l108 -104 -140 -147
c-113 -117 -141 -152 -141 -175 0 -23 22 -50 127 -151 l126 -123 -59 -60 -60
-60 -1005 981 c-552 540 -1071 1049 -1154 1132 l-150 150 120 -5 c93 -4 144
-12 225 -35z m1156 -1610 c384 -376 703 -689 708 -697 7 -9 0 -24 -22 -49 -18
-20 -32 -44 -32 -54 -1 -9 135 -151 307 -320 l307 -303 -724 -725 c-419 -419
-739 -732 -757 -740 -42 -18 -85 -18 -131 1 -44 19 -1836 1802 -1883 1874 -31
48 -37 98 -19 148 11 27 1529 1556 1541 1551 3 -2 321 -310 705 -686z m1727
-1105 c340 -332 625 -614 634 -627 46 -66 45 -172 -3 -242 -32 -46 -112 -88
-168 -88 -93 1 -70 -20 -1180 1071 l-199 195 143 147 c78 81 145 147 149 147
4 0 285 -271 624 -603z"/>
<path d="M3235 4241 c-49 -22 -99 -77 -115 -127 -18 -52 -7 -134 23 -180 14
-22 193 -206 399 -411 396 -395 417 -413 508 -413 86 0 173 63 200 145 20 62
9 144 -27 195 -49 71 -763 774 -805 793 -47 22 -133 21 -183 -2z m129 -116
c42 -20 752 -732 765 -768 23 -60 -21 -117 -88 -117 -34 0 -57 21 -418 383
-359 358 -383 385 -383 417 0 40 22 77 54 90 30 12 34 12 70 -5z"/>
<path d="M1598 3376 c-238 -98 -299 -404 -117 -584 66 -65 136 -95 234 -100
69 -4 90 -1 141 20 33 13 77 37 98 54 76 60 136 184 136 280 0 101 -67 232
-148 288 -101 70 -236 86 -344 42z m201 -112 c83 -16 161 -122 161 -219 0
-107 -81 -204 -185 -224 -200 -37 -349 186 -234 353 28 42 88 84 136 95 36 9
57 8 122 -5z"/>
<path d="M1735 3156 c-13 -10 -31 -13 -53 -9 -58 10 -91 -44 -60 -100 6 -12
11 -37 9 -55 -5 -60 49 -92 95 -57 12 9 32 12 55 8 31 -4 39 -1 57 22 27 34
27 46 3 76 -15 19 -17 28 -8 46 8 19 7 29 -10 51 -23 32 -60 39 -88 18z"/>
<path d="M963 2719 c-53 -15 -109 -76 -127 -138 -20 -67 -20 -84 -1 -147 14
-48 14 -52 -10 -99 -42 -82 -31 -187 29 -274 23 -32 26 -45 20 -80 -4 -24 -1
-61 6 -89 13 -48 74 -150 94 -158 7 -3 11 -36 11 -87 0 -70 4 -90 27 -133 43
-81 118 -138 201 -152 35 -6 43 -12 51 -37 27 -94 43 -123 87 -166 59 -58 127
-83 290 -108 289 -44 390 -110 566 -369 64 -93 110 -152 124 -155 27 -7 65 7
73 28 13 36 3 59 -81 182 -104 155 -138 225 -159 329 -20 103 -13 211 26 365
36 140 38 217 9 294 -20 55 -91 138 -127 149 -14 5 -17 19 -17 98 0 78 -4 100
-23 137 -37 68 -102 125 -167 145 -48 16 -58 23 -71 54 -36 86 -130 162 -219
176 -32 6 -50 17 -83 55 -56 66 -128 101 -205 101 -50 0 -65 5 -96 28 -71 56
-151 73 -228 51z m127 -134 c16 -8 41 -31 56 -50 32 -43 58 -51 104 -31 63 26
139 -15 175 -94 20 -45 42 -56 103 -51 77 5 161 -76 162 -156 0 -38 34 -63 86
-63 77 0 130 -43 152 -123 13 -46 2 -87 -32 -128 -14 -17 -26 -37 -26 -45 0
-24 47 -64 75 -64 43 0 99 -35 123 -78 31 -55 29 -125 -8 -267 -16 -64 -30
-135 -30 -158 0 -99 -6 -97 -94 35 l-82 122 23 124 c22 114 23 126 8 148 -11
18 -25 24 -50 24 -40 0 -60 -23 -71 -85 -3 -22 -9 -44 -11 -48 -7 -12 -73 88
-73 109 0 10 10 69 22 132 l23 114 -28 24 c-16 13 -34 24 -41 24 -31 0 -58
-37 -70 -94 l-11 -58 -42 61 -42 61 20 100 c23 123 24 158 2 182 -37 41 -96 9
-109 -59 -3 -21 -10 -44 -13 -51 -5 -8 -37 31 -87 105 -75 111 -81 118 -116
121 -28 2 -40 -2 -52 -20 -9 -12 -16 -29 -16 -38 0 -8 34 -66 75 -127 41 -62
75 -115 75 -117 0 -3 -25 -2 -55 1 -45 5 -59 2 -75 -12 -25 -22 -26 -67 -2
-88 12 -11 202 -57 236 -57 2 0 22 -28 46 -61 l43 -61 -51 7 c-65 9 -87 1
-102 -35 -10 -25 -10 -34 3 -54 17 -25 35 -30 180 -57 68 -13 69 -13 109 -72
31 -45 36 -58 22 -54 -63 19 -90 18 -117 -3 -15 -12 -27 -31 -27 -44 0 -41 38
-62 154 -84 60 -12 110 -23 111 -24 13 -18 165 -248 163 -248 -2 0 -32 9 -68
21 -36 11 -112 27 -170 35 -132 18 -168 28 -211 57 -53 35 -71 79 -65 160 4
59 2 71 -16 89 -16 16 -27 19 -56 13 -101 -19 -142 -4 -189 65 -27 39 -30 107
-7 151 20 39 11 63 -34 97 -82 60 -103 111 -82 197 l13 56 -30 32 c-50 52 -67
97 -64 164 1 12 17 38 36 57 19 20 35 42 35 51 0 9 -12 39 -26 67 -58 115 12
207 116 153z"/>
<path d="M2652 2234 c-131 -35 -223 -128 -258 -259 -25 -93 -12 -181 41 -268
l33 -56 -23 -21 c-13 -12 -38 -49 -56 -83 -32 -58 -34 -68 -34 -162 0 -91 3
-105 30 -159 37 -73 120 -149 195 -177 81 -31 203 -24 283 16 67 33 133 101
168 172 20 40 24 63 24 144 0 92 -2 100 -37 169 l-38 73 30 34 c69 78 101 191
82 288 -31 151 -124 252 -267 290 -71 18 -103 18 -173 -1z m196 -143 c131 -67
162 -243 63 -352 l-36 -39 -60 21 c-57 20 -123 22 -219 7 -31 -5 -76 67 -83
134 -19 186 168 314 335 229z m-41 -502 c111 -53 160 -195 106 -304 -72 -144
-267 -175 -374 -58 -45 47 -62 93 -62 158 0 94 52 173 138 211 47 21 142 17
192 -7z"/>
<path d="M2677 2002 c-10 -10 -17 -28 -17 -40 0 -11 -13 -34 -30 -50 -16 -17
-30 -37 -30 -45 0 -29 36 -60 68 -60 19 0 32 -5 32 -13 0 -16 39 -44 62 -44
27 0 58 36 58 68 0 19 7 30 23 37 50 22 25 115 -31 115 -14 0 -32 10 -44 25
-23 30 -67 33 -91 7z"/>
<path d="M2640 1498 c-11 -12 -20 -33 -20 -46 0 -14 -11 -32 -25 -44 -14 -11
-25 -30 -25 -44 0 -30 33 -64 61 -64 12 0 32 -11 45 -25 13 -14 34 -25 49 -25
34 0 68 35 63 65 -4 17 1 26 18 33 47 22 43 92 -6 112 -17 7 -33 10 -36 7 -4
-3 -17 7 -31 24 -30 35 -64 38 -93 7z"/>
</g>
</svg>
