<?xml version="1.0" standalone="no"?>
<!DOCTYPE svg PUBLIC "-//W3C//DTD SVG 20010904//EN"
 "http://www.w3.org/TR/2001/REC-SVG-20010904/DTD/svg10.dtd">
<svg version="1.0" xmlns="http://www.w3.org/2000/svg"
 width="64.000000pt" height="64.000000pt" viewBox="0 0 64.000000 64.000000"
 preserveAspectRatio="xMidYMid meet">

<g transform="translate(0.000000,64.000000) scale(0.100000,-0.100000)"
fill="#000000" stroke="none">
<path d="M40 611 c-13 -26 -13 -261 0 -261 6 0 10 50 10 129 0 108 3 130 16
135 45 17 44 23 44 -294 0 -317 1 -311 -44 -294 -14 5 -16 27 -16 140 0 83 -4
134 -10 134 -13 0 -13 -245 0 -271 10 -18 24 -19 248 -19 172 0 241 3 250 12
8 8 12 51 12 129 l0 117 29 5 c24 5 28 10 26 35 -3 38 -12 52 -36 52 -13 0
-19 7 -19 24 0 19 6 25 28 28 24 3 27 7 26 38 0 28 -5 36 -25 40 -21 5 -24 12
-27 60 -2 30 -8 60 -14 67 -8 10 -67 13 -249 13 -225 0 -239 -1 -249 -19z
m488 -3 c17 -17 17 -559 0 -576 -9 -9 -68 -12 -205 -12 l-193 0 0 300 0 300
193 0 c137 0 196 -3 205 -12z m57 -153 c0 -17 -5 -25 -17 -25 -12 0 -18 8 -18
25 0 17 6 25 18 25 12 0 17 -8 17 -25z m0 -140 c0 -17 -5 -25 -17 -25 -12 0
-18 8 -18 25 0 17 6 25 18 25 12 0 17 -8 17 -25z"/>
<path d="M268 560 c-16 -16 -33 -30 -37 -30 -4 0 -16 -9 -26 -20 -23 -25 -24
-74 -2 -98 11 -12 17 -40 19 -87 l3 -70 110 0 110 0 3 72 c2 47 8 75 17 83 29
24 8 120 -27 120 -5 0 -23 14 -38 30 -21 23 -37 30 -65 30 -27 0 -44 -8 -67
-30z m102 5 c16 -9 32 -26 35 -38 4 -16 13 -23 28 -23 14 1 24 -8 31 -26 8
-23 6 -33 -12 -58 -13 -17 -22 -44 -22 -65 l0 -36 -97 3 -98 3 -3 42 c-2 23
-10 47 -18 53 -31 26 -8 98 27 85 9 -3 19 5 26 25 10 26 38 47 66 49 4 1 21
-6 37 -14z m60 -280 l0 -26 -97 3 c-93 3 -98 4 -101 26 -3 22 -1 22 97 22
l101 0 0 -25z"/>
<path d="M250 429 c0 -9 7 -22 15 -29 19 -16 19 0 0 26 -12 16 -14 16 -15 3z"/>
<path d="M332 415 c0 -16 2 -22 5 -12 2 9 2 23 0 30 -3 6 -5 -1 -5 -18z"/>
<path d="M400 421 c-6 -12 -7 -21 -1 -21 10 0 24 30 17 37 -2 3 -9 -5 -16 -16z"/>
<path d="M258 193 c39 -2 105 -2 145 0 39 1 7 3 -73 3 -80 0 -112 -2 -72 -3z"/>
<path d="M288 113 c29 -2 74 -2 100 0 26 2 2 3 -53 3 -55 0 -76 -1 -47 -3z"/>
<path d="M30 330 c0 -5 5 -10 10 -10 6 0 10 5 10 10 0 6 -4 10 -10 10 -5 0
-10 -4 -10 -10z"/>
</g>
</svg>
